<!-- icon666.com - MILLIONS vector ICONS FREE --><svg enable-background="new 0 0 512 512" viewBox="0 0 512 512" xmlns="http://www.w3.org/2000/svg"><g id="Layer_50"><g><path d="m512 440.138c-31.882-6.898-76.457-12.751-129.307-7.891-53.02 4.875-96.23 18.865-126.693 31.541-28.408-13.315-71.243-29.226-125.041-34.379-55.039-5.272-100.614 2.722-130.959 10.729 0-126.26 0-252.52 0-378.781 30.626-8.45 77.843-17.226 135.06-11.091 51.95 5.571 93.312 21.415 120.94 34.74 30.95-12.463 74.101-25.922 126.693-30.767 52.479-4.833 96.959.513 129.307 7.117z" fill="#f3c23b"></path><path d="m476.421 400.237c-27.451-5.404-65.831-9.988-111.336-6.181-45.651 3.819-82.856 14.777-109.086 24.706-24.46-10.43-61.341-22.893-107.663-26.929-47.389-4.129-86.631 2.133-112.758 8.405 0-98.901 0-197.802 0-296.703 26.369-6.619 67.024-13.494 116.29-8.687 44.73 4.364 80.344 16.775 104.132 27.212 26.649-9.762 63.802-20.305 109.086-24.1 45.186-3.786 83.484.402 111.336 5.575-.001 98.9-.001 197.801-.001 296.702z" fill="#f9d171"></path><g><path d="m256 419.17c-4.268 0-7.726-3.459-7.726-7.726v-279.982c0-4.268 3.459-7.726 7.726-7.726s7.726 3.459 7.726 7.726v279.982c0 4.267-3.458 7.726-7.726 7.726z" fill="#858586"></path></g><g><g><g><path d="m192.432 208.738h-88.289c-4.268 0-7.726-3.459-7.726-7.726s3.459-7.726 7.726-7.726h88.289c4.268 0 7.726 3.459 7.726 7.726s-3.459 7.726-7.726 7.726z" fill="#858586"></path></g><g><g><path d="m192.432 263.726h-88.289c-4.268 0-7.726-3.459-7.726-7.726s3.459-7.726 7.726-7.726h88.289c4.268 0 7.726 3.459 7.726 7.726s-3.459 7.726-7.726 7.726z" fill="#858586"></path></g></g><g><g><path d="m192.432 318.714h-88.289c-4.268 0-7.726-3.459-7.726-7.726 0-4.268 3.459-7.726 7.726-7.726h88.289c4.268 0 7.726 3.459 7.726 7.726 0 4.268-3.459 7.726-7.726 7.726z" fill="#858586"></path></g></g></g><g><path d="m407.857 208.738h-88.289c-4.268 0-7.726-3.459-7.726-7.726s3.459-7.726 7.726-7.726h88.289c4.268 0 7.726 3.459 7.726 7.726s-3.458 7.726-7.726 7.726z" fill="#858586"></path></g><g><g><path d="m407.857 263.726h-88.289c-4.268 0-7.726-3.459-7.726-7.726s3.459-7.726 7.726-7.726h88.289c4.268 0 7.726 3.459 7.726 7.726s-3.458 7.726-7.726 7.726z" fill="#858586"></path></g></g><g><g><path d="m407.857 318.714h-88.289c-4.268 0-7.726-3.459-7.726-7.726 0-4.268 3.459-7.726 7.726-7.726h88.289c4.268 0 7.726 3.459 7.726 7.726 0 4.268-3.458 7.726-7.726 7.726z" fill="#858586"></path></g></g></g></g></g></svg>